<?xml version="1.0" encoding="UTF-8" standalone="no"?>
<svg
   xmlns:dc="http://purl.org/dc/elements/1.1/"
   xmlns:cc="http://creativecommons.org/ns#"
   xmlns:rdf="http://www.w3.org/1999/02/22-rdf-syntax-ns#"
   xmlns:svg="http://www.w3.org/2000/svg"
   xmlns="http://www.w3.org/2000/svg"
   xmlns:sodipodi="http://sodipodi.sourceforge.net/DTD/sodipodi-0.dtd"
   xmlns:inkscape="http://www.inkscape.org/namespaces/inkscape"
   width="119mm"
   height="49mm"
   viewBox="0 0 119 49"
   version="1.1"
   id="svg5353"
   inkscape:version="1.0.1 (3bc2e813f5, 2020-09-07)"
   sodipodi:docname="বাংলা.svg">
  <defs
     id="defs5347" />
  <sodipodi:namedview
     id="base"
     pagecolor="#ffffff"
     bordercolor="#666666"
     borderopacity="1.0"
     inkscape:pageopacity="0.0"
     inkscape:pageshadow="2"
     inkscape:zoom="2"
     inkscape:cx="252.21819"
     inkscape:cy="104.27987"
     inkscape:document-units="mm"
     inkscape:current-layer="layer1"
     inkscape:document-rotation="0"
     showgrid="false"
     inkscape:window-width="1600"
     inkscape:window-height="837"
     inkscape:window-x="-8"
     inkscape:window-y="-8"
     inkscape:window-maximized="1" />
  <metadata
     id="metadata5350">
    <rdf:RDF>
      <cc:Work
         rdf:about="">
        <dc:format>image/svg+xml</dc:format>
        <dc:type
           rdf:resource="http://purl.org/dc/dcmitype/StillImage" />
        <dc:title></dc:title>
      </cc:Work>
    </rdf:RDF>
  </metadata>
  <g
     inkscape:label="Layer 1"
     inkscape:groupmode="layer"
     id="layer1">
    <g
       aria-label="বাংলা"
       id="text5357"
       style="font-size:59.9722px;line-height:1.25;font-family:Kalpurush;-inkscape-font-specification:'Kalpurush, Normal';stroke-width:0.264583">
      <path
         d="m 30.563509,11.546005 v 35.263653 l -1.859138,-2.218971 q -0.179917,-0.53975 -0.479778,-1.0795 Q 27.984704,42.911465 27.205066,41.472132 26.485399,40.0328 25.106039,38.353578 23.726678,36.614384 22.527234,35.474913 18.209236,31.516747 11.072544,30.797081 L 6.6945739,24.559972 Q 16.769903,17.543225 27.32501,14.004865 v -2.45886 H 4.3556582 L 1.0571872,8.1875622 H 34.221813 l 3.238499,3.3584428 z m -3.238499,7.916331 q -3.238499,1.199444 -6.596942,2.878665 -3.298471,1.679222 -6.956775,4.138082 9.055802,3.778248 13.553717,11.514662 z"
         style="font-size:59.9722px;stroke-width:0.264583"
         id="path5359" />
      <path
         d="M 43.097646,11.546005 V 46.629741 L 39.859147,43.271298 V 18.382836 q 0,-1.559277 -0.599722,-2.818693 -0.599722,-1.259417 -1.679221,-2.099027 -1.019528,-0.899583 -2.338916,-1.379361 -1.379361,-0.53975 -2.818693,-0.53975 L 29.064152,8.1875622 h 3.83822 q 3.058582,0 4.737804,1.3793606 1.679222,1.3193882 2.698749,4.4379422 0,-1.019527 -0.05997,-2.518832 Q 40.21898,9.9867282 40.039064,7.9476734 39.91912,5.9685909 39.859147,4.5292581 39.799175,3.0299532 39.799175,2.0104258 l 1.199444,1.0195274 q 0.599722,3.5983319 2.099027,5.157609 h 2.99861 l 3.298471,3.3584428 z"
         style="font-size:59.9722px;stroke-width:0.264583"
         id="path5361" />
      <path
         d="m 65.707095,16.943503 q 0,3.058582 -2.099027,5.517442 -2.039055,2.278944 -5.097637,2.278944 -3.238499,0 -5.577414,-2.338916 -2.338916,-2.338915 -2.338916,-5.637386 0,-1.439333 0.53975,-2.818694 0.539749,-1.37936 1.739193,-2.578804 2.338916,-2.4588604 5.277554,-2.4588604 3.178526,0 5.337525,2.4588604 2.218972,2.398888 2.218972,5.577414 z m -3.238499,-1.739194 q 0,-2.878665 -2.398888,-2.878665 -2.338916,0 -4.198054,2.039055 -0.839611,0.959555 -1.319388,2.158999 -0.419806,1.139472 -0.419806,2.338916 0,2.638776 2.039055,2.638776 2.45886,0 4.377971,-1.91911 1.91911,-1.859138 1.91911,-4.377971 z m 5.757331,31.725293 Q 66.366789,45.070464 64.20779,43.211326 62.048791,41.352188 59.829819,39.732939 57.610848,38.053717 55.451849,36.614384 53.29285,35.115079 51.433712,34.03558 v -7.556497 q 3.958165,3.058582 8.875885,8.336135 4.91772,5.217582 7.91633,9.415636 z"
         style="font-size:59.9722px;stroke-width:0.264583"
         id="path5363" />
      <path
         d="m 99.291501,11.546005 v 35.44357 L 95.813114,43.751076 V 24.559972 q 0,-1.799166 -1.319389,-3.118554 -1.259416,-1.37936 -3.058582,-1.37936 -2.878665,0 -2.878665,3.478387 0,0.779639 0.299861,2.099027 l -1.379361,0.53975 Q 86.9972,23.480473 84.778229,21.741279 82.61923,20.002085 79.740564,20.002085 q -1.259416,0 -2.398887,0.53975 -1.139472,0.479778 -2.039055,1.319388 -0.839611,0.839611 -1.379361,2.039055 -0.479777,1.139472 -0.479777,2.398888 0,4.07811 4.857748,4.797776 -1.0795,-1.619249 -1.0795,-2.818693 0,-1.439333 1.139472,-2.518833 1.199444,-1.139471 2.638777,-1.139471 4.617859,0.299861 4.617859,4.977692 -0.05997,1.979083 -1.439333,3.238499 -1.37936,1.259416 -4.018137,1.439333 -2.158999,0 -3.958165,-0.659695 -1.799166,-0.719666 -3.118555,-1.979082 -1.259416,-1.259416 -1.979082,-2.99861 -0.719666,-1.799166 -0.719666,-3.958165 0,-3.478388 1.91911,-6.417025 2.158999,-3.238499 5.517442,-3.238499 4.317998,0 7.736414,4.437943 0,-1.559278 1.37936,-2.878666 1.379361,-1.379361 2.758721,-1.379361 4.198054,0 6.237109,5.577415 V 11.546005 H 68.465791 L 64.987404,8.1875622 h 37.122786 l 3.41842,3.3584428 z"
         style="font-size:59.9722px;stroke-width:0.264583"
         id="path5365" />
      <path
         d="m 111.64573,11.546005 v 35.083736 l -3.2385,-3.358443 V 18.382836 q 0,-1.559277 -0.59972,-2.818693 -0.59972,-1.259417 -1.67922,-2.099027 -1.01953,-0.899583 -2.33892,-1.379361 -1.37936,-0.53975 -2.81869,-0.53975 L 97.612238,8.1875622 h 3.838222 q 3.05858,0 4.7378,1.3793606 1.67922,1.3193882 2.69875,4.4379422 0,-1.019527 -0.06,-2.518832 -0.06,-1.4993048 -0.23989,-3.5383596 -0.11994,-1.9790825 -0.17992,-3.4184153 -0.06,-1.4993049 -0.06,-2.5188323 l 1.19945,1.0195274 q 0.59972,3.5983319 2.09902,5.157609 h 2.99861 l 3.29847,3.3584428 z"
         style="font-size:59.9722px;stroke-width:0.264583"
         id="path5367" />
    </g>
  </g>
</svg>
